<svg width="1440" height="785" viewBox="0 0 1440 785" fill="none" xmlns="http://www.w3.org/2000/svg">
<path d="M0 1C176.606 58.9744 567.173 191.4 716.589 257.308C866.005 323.215 1043.12 351.897 1113 358" stroke="url(#paint0_linear_11_10)"/>
<path d="M0 223C176.606 280.974 567.173 413.4 716.589 479.308C866.005 545.215 1043.12 573.897 1113 580" stroke="url(#paint1_linear_11_10)"/>
<path d="M0 15C176.606 72.9744 567.173 205.4 716.589 271.308C866.005 337.215 1043.12 365.897 1113 372" stroke="url(#paint2_linear_11_10)"/>
<path d="M0 237C176.606 294.974 567.173 427.4 716.589 493.308C866.005 559.215 1043.12 587.897 1113 594" stroke="url(#paint3_linear_11_10)"/>
<path d="M0 28C176.606 86.1368 567.173 218.933 716.589 285.026C866.005 351.118 1043.12 379.88 1113 386" stroke="url(#paint4_linear_11_10)"/>
<path d="M0 250C176.606 308.137 567.173 440.933 716.589 507.026C866.005 573.118 1043.12 601.88 1113 608" stroke="url(#paint5_linear_11_10)"/>
<path d="M0 42C176.606 100.137 567.173 232.933 716.589 299.026C866.005 365.118 1043.12 393.88 1113 400" stroke="url(#paint6_linear_11_10)"/>
<path d="M0 264C176.606 322.137 567.173 454.933 716.589 521.026C866.005 587.118 1043.12 615.88 1113 622" stroke="url(#paint7_linear_11_10)"/>
<path d="M0 56C176.606 113.974 567.173 246.4 716.589 312.308C866.005 378.215 1043.12 406.897 1113 413" stroke="url(#paint8_linear_11_10)"/>
<path d="M0 278C176.606 335.974 567.173 468.4 716.589 534.308C866.005 600.215 1043.12 628.897 1113 635" stroke="url(#paint9_linear_11_10)"/>
<path d="M0 70C176.606 127.974 567.173 260.4 716.589 326.308C866.005 392.215 1043.12 420.897 1113 427" stroke="url(#paint10_linear_11_10)"/>
<path d="M0 292C176.606 349.974 567.173 482.4 716.589 548.308C866.005 614.215 1043.12 642.897 1113 649" stroke="url(#paint11_linear_11_10)"/>
<path d="M0 83C176.606 141.137 567.173 273.933 716.589 340.026C866.005 406.118 1043.12 434.88 1113 441" stroke="url(#paint12_linear_11_10)"/>
<path d="M0 305C176.606 363.137 567.173 495.933 716.589 562.026C866.005 628.118 1043.12 656.88 1113 663" stroke="url(#paint13_linear_11_10)"/>
<path d="M0 97C176.606 155.137 567.173 287.933 716.589 354.026C866.005 420.118 1043.12 448.88 1113 455" stroke="url(#paint14_linear_11_10)"/>
<path d="M0 319C176.606 377.137 567.173 509.933 716.589 576.026C866.005 642.118 1043.12 670.88 1113 677" stroke="url(#paint15_linear_11_10)"/>
<path d="M0 111C176.606 168.974 567.173 301.4 716.589 367.308C866.005 433.215 1043.12 461.897 1113 468" stroke="url(#paint16_linear_11_10)"/>
<path d="M0 333C176.606 390.974 567.173 523.4 716.589 589.308C866.005 655.215 1043.12 683.897 1113 690" stroke="url(#paint17_linear_11_10)"/>
<path d="M0 125C176.606 182.974 567.173 315.4 716.589 381.308C866.005 447.215 1043.12 475.897 1113 482" stroke="url(#paint18_linear_11_10)"/>
<path d="M0 347C176.606 404.974 567.173 537.4 716.589 603.308C866.005 669.215 1043.12 697.897 1113 704" stroke="url(#paint19_linear_11_10)"/>
<path d="M0 138C176.606 196.137 567.173 328.933 716.589 395.026C866.005 461.118 1043.12 489.88 1113 496" stroke="url(#paint20_linear_11_10)"/>
<path d="M0 360C176.606 418.137 567.173 550.933 716.589 617.026C866.005 683.118 1043.12 711.88 1113 718" stroke="url(#paint21_linear_11_10)"/>
<path d="M0 152C176.606 210.137 567.173 342.933 716.589 409.026C866.005 475.118 1043.12 503.88 1113 510" stroke="url(#paint22_linear_11_10)"/>
<path d="M0 374C176.606 432.137 567.173 564.933 716.589 631.026C866.005 697.118 1043.12 725.88 1113 732" stroke="url(#paint23_linear_11_10)"/>
<path d="M0 166C176.606 223.974 567.173 356.4 716.589 422.308C866.005 488.215 1043.12 516.897 1113 523" stroke="url(#paint24_linear_11_10)"/>
<path d="M0 388C176.606 445.974 567.173 578.4 716.589 644.308C866.005 710.215 1043.12 738.897 1113 745" stroke="url(#paint25_linear_11_10)"/>
<path d="M0 180C176.606 237.974 567.173 370.4 716.589 436.308C866.005 502.215 1043.12 530.897 1113 537" stroke="url(#paint26_linear_11_10)"/>
<path d="M0 402C176.606 459.974 567.173 592.4 716.589 658.308C866.005 724.215 1043.12 752.897 1113 759" stroke="url(#paint27_linear_11_10)"/>
<path d="M0 193C176.606 251.137 567.173 383.933 716.589 450.026C866.005 516.118 1043.12 544.88 1113 551" stroke="url(#paint28_linear_11_10)"/>
<path d="M0 415C176.606 473.137 567.173 605.933 716.589 672.026C866.005 738.118 1043.12 766.88 1113 773" stroke="url(#paint29_linear_11_10)"/>
<path d="M0 207C176.606 265.137 567.173 397.933 716.589 464.026C866.005 530.118 1043.12 558.88 1113 565" stroke="url(#paint30_linear_11_10)"/>
<path d="M0 429C176.606 487.137 567.173 619.933 716.589 686.026C866.005 752.118 1043.12 780.88 1113 787" stroke="url(#paint31_linear_11_10)"/>
<path d="M1440 147.958C1124.94 329.933 782.716 623.267 340 416.847" stroke="url(#paint32_linear_11_10)"/>
<path d="M1440 251C1124.94 432.975 782.716 726.309 340 519.889" stroke="url(#paint33_linear_11_10)"/>
<path d="M1440 165.126C1124.94 347.102 782.716 640.435 340 434.015" stroke="url(#paint34_linear_11_10)"/>
<path d="M1440 268.169C1124.94 450.144 782.716 743.478 340 537.058" stroke="url(#paint35_linear_11_10)"/>
<path d="M1440 156.463C1124.94 338.438 782.716 631.772 340 425.352" stroke="url(#paint36_linear_11_10)"/>
<path d="M1440 259.505C1124.94 441.48 782.716 734.814 340 528.394" stroke="url(#paint37_linear_11_10)"/>
<path d="M1440 173.631C1124.94 355.606 782.716 648.94 340 442.52" stroke="url(#paint38_linear_11_10)"/>
<path d="M1440 276.673C1124.94 458.648 782.716 751.982 340 545.562" stroke="url(#paint39_linear_11_10)"/>
<path d="M1440 182.295C1124.94 364.27 782.716 657.604 340 451.184" stroke="url(#paint40_linear_11_10)"/>
<path d="M1440 285.337C1124.94 467.312 782.716 760.646 340 554.226" stroke="url(#paint41_linear_11_10)"/>
<path d="M1440 216.631C1124.94 398.607 782.716 691.94 340 485.52" stroke="url(#paint42_linear_11_10)"/>
<path d="M1440 319.674C1124.94 501.649 782.716 794.982 340 588.563" stroke="url(#paint43_linear_11_10)"/>
<path d="M1440 199.463C1124.94 381.438 782.716 674.772 340 468.352" stroke="url(#paint44_linear_11_10)"/>
<path d="M1440 302.505C1124.94 484.481 782.716 777.814 340 571.394" stroke="url(#paint45_linear_11_10)"/>
<path d="M1440 233.8C1124.94 415.775 782.716 709.108 340 502.689" stroke="url(#paint46_linear_11_10)"/>
<path d="M1440 336.842C1124.94 518.817 782.716 812.15 340 605.731" stroke="url(#paint47_linear_11_10)"/>
<path d="M1440 190.799C1124.94 372.775 782.716 666.108 340 459.688" stroke="url(#paint48_linear_11_10)"/>
<path d="M1440 293.842C1124.94 475.817 782.716 769.15 340 562.731" stroke="url(#paint49_linear_11_10)"/>
<path d="M1440 225.136C1124.94 407.111 782.716 700.444 340 494.025" stroke="url(#paint50_linear_11_10)"/>
<path d="M1440 328.178C1124.94 510.154 782.716 803.487 340 597.067" stroke="url(#paint51_linear_11_10)"/>
<path d="M1440 207.968C1124.94 389.943 782.716 683.276 340 476.857" stroke="url(#paint52_linear_11_10)"/>
<path d="M1440 311.01C1124.94 492.985 782.716 786.318 340 579.899" stroke="url(#paint53_linear_11_10)"/>
<path d="M1440 242.305C1124.94 424.28 782.716 717.613 340 511.194" stroke="url(#paint54_linear_11_10)"/>
<path d="M1440 345.347C1124.94 527.322 782.716 820.655 340 614.236" stroke="url(#paint55_linear_11_10)"/>
<defs>
<linearGradient id="paint0_linear_11_10" x1="0" y1="179.5" x2="1113" y2="179.5" gradientUnits="userSpaceOnUse">
<stop stop-color="#111924"/>
<stop offset="0.484" stop-color="#162335"/>
<stop offset="1" stop-color="#111924"/>
</linearGradient>
<linearGradient id="paint1_linear_11_10" x1="0" y1="401.5" x2="1113" y2="401.5" gradientUnits="userSpaceOnUse">
<stop stop-color="#111924"/>
<stop offset="0.484" stop-color="#162335"/>
<stop offset="1" stop-color="#111924"/>
</linearGradient>
<linearGradient id="paint2_linear_11_10" x1="0" y1="193.5" x2="1113" y2="193.5" gradientUnits="userSpaceOnUse">
<stop stop-color="#111924"/>
<stop offset="0.484" stop-color="#162335"/>
<stop offset="1" stop-color="#111924"/>
</linearGradient>
<linearGradient id="paint3_linear_11_10" x1="0" y1="415.5" x2="1113" y2="415.5" gradientUnits="userSpaceOnUse">
<stop stop-color="#111924"/>
<stop offset="0.484" stop-color="#162335"/>
<stop offset="1" stop-color="#111924"/>
</linearGradient>
<linearGradient id="paint4_linear_11_10" x1="0" y1="207" x2="1113" y2="207" gradientUnits="userSpaceOnUse">
<stop stop-color="#111924"/>
<stop offset="0.484" stop-color="#162335"/>
<stop offset="1" stop-color="#111924"/>
</linearGradient>
<linearGradient id="paint5_linear_11_10" x1="0" y1="429" x2="1113" y2="429" gradientUnits="userSpaceOnUse">
<stop stop-color="#111924"/>
<stop offset="0.484" stop-color="#162335"/>
<stop offset="1" stop-color="#111924"/>
</linearGradient>
<linearGradient id="paint6_linear_11_10" x1="0" y1="221" x2="1113" y2="221" gradientUnits="userSpaceOnUse">
<stop stop-color="#111924"/>
<stop offset="0.484" stop-color="#162335"/>
<stop offset="1" stop-color="#111924"/>
</linearGradient>
<linearGradient id="paint7_linear_11_10" x1="0" y1="443" x2="1113" y2="443" gradientUnits="userSpaceOnUse">
<stop stop-color="#111924"/>
<stop offset="0.484" stop-color="#162335"/>
<stop offset="1" stop-color="#111924"/>
</linearGradient>
<linearGradient id="paint8_linear_11_10" x1="0" y1="234.5" x2="1113" y2="234.5" gradientUnits="userSpaceOnUse">
<stop stop-color="#111924"/>
<stop offset="0.484" stop-color="#162335"/>
<stop offset="1" stop-color="#111924"/>
</linearGradient>
<linearGradient id="paint9_linear_11_10" x1="0" y1="456.5" x2="1113" y2="456.5" gradientUnits="userSpaceOnUse">
<stop stop-color="#111924"/>
<stop offset="0.484" stop-color="#162335"/>
<stop offset="1" stop-color="#111924"/>
</linearGradient>
<linearGradient id="paint10_linear_11_10" x1="0" y1="248.5" x2="1113" y2="248.5" gradientUnits="userSpaceOnUse">
<stop stop-color="#111924"/>
<stop offset="0.484" stop-color="#162335"/>
<stop offset="1" stop-color="#111924"/>
</linearGradient>
<linearGradient id="paint11_linear_11_10" x1="0" y1="470.5" x2="1113" y2="470.5" gradientUnits="userSpaceOnUse">
<stop stop-color="#111924"/>
<stop offset="0.484" stop-color="#162335"/>
<stop offset="1" stop-color="#111924"/>
</linearGradient>
<linearGradient id="paint12_linear_11_10" x1="0" y1="262" x2="1113" y2="262" gradientUnits="userSpaceOnUse">
<stop stop-color="#111924"/>
<stop offset="0.484" stop-color="#162335"/>
<stop offset="1" stop-color="#111924"/>
</linearGradient>
<linearGradient id="paint13_linear_11_10" x1="0" y1="484" x2="1113" y2="484" gradientUnits="userSpaceOnUse">
<stop stop-color="#111924"/>
<stop offset="0.484" stop-color="#162335"/>
<stop offset="1" stop-color="#111924"/>
</linearGradient>
<linearGradient id="paint14_linear_11_10" x1="0" y1="276" x2="1113" y2="276" gradientUnits="userSpaceOnUse">
<stop stop-color="#111924"/>
<stop offset="0.484" stop-color="#162335"/>
<stop offset="1" stop-color="#111924"/>
</linearGradient>
<linearGradient id="paint15_linear_11_10" x1="0" y1="498" x2="1113" y2="498" gradientUnits="userSpaceOnUse">
<stop stop-color="#111924"/>
<stop offset="0.484" stop-color="#162335"/>
<stop offset="1" stop-color="#111924"/>
</linearGradient>
<linearGradient id="paint16_linear_11_10" x1="0" y1="289.5" x2="1113" y2="289.5" gradientUnits="userSpaceOnUse">
<stop stop-color="#111924"/>
<stop offset="0.484" stop-color="#162335"/>
<stop offset="1" stop-color="#111924"/>
</linearGradient>
<linearGradient id="paint17_linear_11_10" x1="0" y1="511.5" x2="1113" y2="511.5" gradientUnits="userSpaceOnUse">
<stop stop-color="#111924"/>
<stop offset="0.484" stop-color="#162335"/>
<stop offset="1" stop-color="#111924"/>
</linearGradient>
<linearGradient id="paint18_linear_11_10" x1="0" y1="303.5" x2="1113" y2="303.5" gradientUnits="userSpaceOnUse">
<stop stop-color="#111924"/>
<stop offset="0.484" stop-color="#162335"/>
<stop offset="1" stop-color="#111924"/>
</linearGradient>
<linearGradient id="paint19_linear_11_10" x1="0" y1="525.5" x2="1113" y2="525.5" gradientUnits="userSpaceOnUse">
<stop stop-color="#111924"/>
<stop offset="0.484" stop-color="#162335"/>
<stop offset="1" stop-color="#111924"/>
</linearGradient>
<linearGradient id="paint20_linear_11_10" x1="0" y1="317" x2="1113" y2="317" gradientUnits="userSpaceOnUse">
<stop stop-color="#111924"/>
<stop offset="0.484" stop-color="#162335"/>
<stop offset="1" stop-color="#111924"/>
</linearGradient>
<linearGradient id="paint21_linear_11_10" x1="0" y1="539" x2="1113" y2="539" gradientUnits="userSpaceOnUse">
<stop stop-color="#111924"/>
<stop offset="0.484" stop-color="#162335"/>
<stop offset="1" stop-color="#111924"/>
</linearGradient>
<linearGradient id="paint22_linear_11_10" x1="0" y1="331" x2="1113" y2="331" gradientUnits="userSpaceOnUse">
<stop stop-color="#111924"/>
<stop offset="0.484" stop-color="#162335"/>
<stop offset="1" stop-color="#111924"/>
</linearGradient>
<linearGradient id="paint23_linear_11_10" x1="0" y1="553" x2="1113" y2="553" gradientUnits="userSpaceOnUse">
<stop stop-color="#111924"/>
<stop offset="0.484" stop-color="#162335"/>
<stop offset="1" stop-color="#111924"/>
</linearGradient>
<linearGradient id="paint24_linear_11_10" x1="0" y1="344.5" x2="1113" y2="344.5" gradientUnits="userSpaceOnUse">
<stop stop-color="#111924"/>
<stop offset="0.484" stop-color="#162335"/>
<stop offset="1" stop-color="#111924"/>
</linearGradient>
<linearGradient id="paint25_linear_11_10" x1="0" y1="566.5" x2="1113" y2="566.5" gradientUnits="userSpaceOnUse">
<stop stop-color="#111924"/>
<stop offset="0.484" stop-color="#162335"/>
<stop offset="1" stop-color="#111924"/>
</linearGradient>
<linearGradient id="paint26_linear_11_10" x1="0" y1="358.5" x2="1113" y2="358.5" gradientUnits="userSpaceOnUse">
<stop stop-color="#111924"/>
<stop offset="0.484" stop-color="#162335"/>
<stop offset="1" stop-color="#111924"/>
</linearGradient>
<linearGradient id="paint27_linear_11_10" x1="0" y1="580.5" x2="1113" y2="580.5" gradientUnits="userSpaceOnUse">
<stop stop-color="#111924"/>
<stop offset="0.484" stop-color="#162335"/>
<stop offset="1" stop-color="#111924"/>
</linearGradient>
<linearGradient id="paint28_linear_11_10" x1="0" y1="372" x2="1113" y2="372" gradientUnits="userSpaceOnUse">
<stop stop-color="#111924"/>
<stop offset="0.484" stop-color="#162335"/>
<stop offset="1" stop-color="#111924"/>
</linearGradient>
<linearGradient id="paint29_linear_11_10" x1="0" y1="594" x2="1113" y2="594" gradientUnits="userSpaceOnUse">
<stop stop-color="#111924"/>
<stop offset="0.484" stop-color="#162335"/>
<stop offset="1" stop-color="#111924"/>
</linearGradient>
<linearGradient id="paint30_linear_11_10" x1="0" y1="386" x2="1113" y2="386" gradientUnits="userSpaceOnUse">
<stop stop-color="#111924"/>
<stop offset="0.484" stop-color="#162335"/>
<stop offset="1" stop-color="#111924"/>
</linearGradient>
<linearGradient id="paint31_linear_11_10" x1="0" y1="608" x2="1113" y2="608" gradientUnits="userSpaceOnUse">
<stop stop-color="#111924"/>
<stop offset="0.484" stop-color="#162335"/>
<stop offset="1" stop-color="#111924"/>
</linearGradient>
<linearGradient id="paint32_linear_11_10" x1="340" y1="317.762" x2="1336.79" y2="317.762" gradientUnits="userSpaceOnUse">
<stop offset="0.1" stop-color="#131D24"/>
<stop offset="0.259" stop-color="#18283E"/>
<stop offset="0.51" stop-color="#5D8F6C"/>
<stop offset="1" stop-color="#111924"/>
</linearGradient>
<linearGradient id="paint33_linear_11_10" x1="340" y1="420.804" x2="1336.79" y2="420.804" gradientUnits="userSpaceOnUse">
<stop offset="0.1" stop-color="#131D24"/>
<stop offset="0.259" stop-color="#18283E"/>
<stop offset="0.51" stop-color="#5D8F6C"/>
<stop offset="1" stop-color="#111924"/>
</linearGradient>
<linearGradient id="paint34_linear_11_10" x1="340" y1="334.931" x2="1336.79" y2="334.931" gradientUnits="userSpaceOnUse">
<stop offset="0.1" stop-color="#131D24"/>
<stop offset="0.259" stop-color="#18283E"/>
<stop offset="0.51" stop-color="#5D8F6C"/>
<stop offset="1" stop-color="#111924"/>
</linearGradient>
<linearGradient id="paint35_linear_11_10" x1="340" y1="437.973" x2="1336.79" y2="437.973" gradientUnits="userSpaceOnUse">
<stop offset="0.1" stop-color="#131D24"/>
<stop offset="0.259" stop-color="#18283E"/>
<stop offset="0.51" stop-color="#5D8F6C"/>
<stop offset="1" stop-color="#111924"/>
</linearGradient>
<linearGradient id="paint36_linear_11_10" x1="340" y1="326.267" x2="1336.79" y2="326.267" gradientUnits="userSpaceOnUse">
<stop offset="0.1" stop-color="#131D24"/>
<stop offset="0.259" stop-color="#18283E"/>
<stop offset="0.51" stop-color="#5D8F6C"/>
<stop offset="1" stop-color="#111924"/>
</linearGradient>
<linearGradient id="paint37_linear_11_10" x1="340" y1="429.309" x2="1336.79" y2="429.309" gradientUnits="userSpaceOnUse">
<stop offset="0.1" stop-color="#131D24"/>
<stop offset="0.259" stop-color="#18283E"/>
<stop offset="0.51" stop-color="#5D8F6C"/>
<stop offset="1" stop-color="#111924"/>
</linearGradient>
<linearGradient id="paint38_linear_11_10" x1="340" y1="343.435" x2="1336.79" y2="343.435" gradientUnits="userSpaceOnUse">
<stop offset="0.1" stop-color="#131D24"/>
<stop offset="0.259" stop-color="#18283E"/>
<stop offset="0.51" stop-color="#5D8F6C"/>
<stop offset="1" stop-color="#111924"/>
</linearGradient>
<linearGradient id="paint39_linear_11_10" x1="340" y1="446.477" x2="1336.79" y2="446.477" gradientUnits="userSpaceOnUse">
<stop offset="0.1" stop-color="#131D24"/>
<stop offset="0.259" stop-color="#18283E"/>
<stop offset="0.51" stop-color="#5D8F6C"/>
<stop offset="1" stop-color="#111924"/>
</linearGradient>
<linearGradient id="paint40_linear_11_10" x1="340" y1="352.099" x2="1336.79" y2="352.099" gradientUnits="userSpaceOnUse">
<stop offset="0.1" stop-color="#131D24"/>
<stop offset="0.259" stop-color="#18283E"/>
<stop offset="0.51" stop-color="#5D8F6C"/>
<stop offset="1" stop-color="#111924"/>
</linearGradient>
<linearGradient id="paint41_linear_11_10" x1="340" y1="455.141" x2="1336.79" y2="455.141" gradientUnits="userSpaceOnUse">
<stop offset="0.1" stop-color="#131D24"/>
<stop offset="0.259" stop-color="#18283E"/>
<stop offset="0.51" stop-color="#5D8F6C"/>
<stop offset="1" stop-color="#111924"/>
</linearGradient>
<linearGradient id="paint42_linear_11_10" x1="340" y1="386.435" x2="1336.79" y2="386.435" gradientUnits="userSpaceOnUse">
<stop offset="0.1" stop-color="#131D24"/>
<stop offset="0.259" stop-color="#18283E"/>
<stop offset="0.51" stop-color="#5D8F6C"/>
<stop offset="1" stop-color="#111924"/>
</linearGradient>
<linearGradient id="paint43_linear_11_10" x1="340" y1="489.478" x2="1336.79" y2="489.478" gradientUnits="userSpaceOnUse">
<stop offset="0.1" stop-color="#131D24"/>
<stop offset="0.259" stop-color="#18283E"/>
<stop offset="0.51" stop-color="#5D8F6C"/>
<stop offset="1" stop-color="#111924"/>
</linearGradient>
<linearGradient id="paint44_linear_11_10" x1="340" y1="369.267" x2="1336.79" y2="369.267" gradientUnits="userSpaceOnUse">
<stop offset="0.1" stop-color="#131D24"/>
<stop offset="0.259" stop-color="#18283E"/>
<stop offset="0.51" stop-color="#5D8F6C"/>
<stop offset="1" stop-color="#111924"/>
</linearGradient>
<linearGradient id="paint45_linear_11_10" x1="340" y1="472.309" x2="1336.79" y2="472.309" gradientUnits="userSpaceOnUse">
<stop offset="0.1" stop-color="#131D24"/>
<stop offset="0.259" stop-color="#18283E"/>
<stop offset="0.51" stop-color="#5D8F6C"/>
<stop offset="1" stop-color="#111924"/>
</linearGradient>
<linearGradient id="paint46_linear_11_10" x1="340" y1="403.604" x2="1336.79" y2="403.604" gradientUnits="userSpaceOnUse">
<stop offset="0.1" stop-color="#131D24"/>
<stop offset="0.259" stop-color="#18283E"/>
<stop offset="0.51" stop-color="#5D8F6C"/>
<stop offset="1" stop-color="#111924"/>
</linearGradient>
<linearGradient id="paint47_linear_11_10" x1="340" y1="506.646" x2="1336.79" y2="506.646" gradientUnits="userSpaceOnUse">
<stop offset="0.1" stop-color="#131D24"/>
<stop offset="0.259" stop-color="#18283E"/>
<stop offset="0.51" stop-color="#5D8F6C"/>
<stop offset="1" stop-color="#111924"/>
</linearGradient>
<linearGradient id="paint48_linear_11_10" x1="340" y1="360.603" x2="1336.79" y2="360.603" gradientUnits="userSpaceOnUse">
<stop offset="0.1" stop-color="#131D24"/>
<stop offset="0.259" stop-color="#18283E"/>
<stop offset="0.51" stop-color="#5D8F6C"/>
<stop offset="1" stop-color="#111924"/>
</linearGradient>
<linearGradient id="paint49_linear_11_10" x1="340" y1="463.646" x2="1336.79" y2="463.646" gradientUnits="userSpaceOnUse">
<stop offset="0.1" stop-color="#131D24"/>
<stop offset="0.259" stop-color="#18283E"/>
<stop offset="0.51" stop-color="#5D8F6C"/>
<stop offset="1" stop-color="#111924"/>
</linearGradient>
<linearGradient id="paint50_linear_11_10" x1="340" y1="394.94" x2="1336.79" y2="394.94" gradientUnits="userSpaceOnUse">
<stop offset="0.1" stop-color="#131D24"/>
<stop offset="0.259" stop-color="#18283E"/>
<stop offset="0.51" stop-color="#5D8F6C"/>
<stop offset="1" stop-color="#111924"/>
</linearGradient>
<linearGradient id="paint51_linear_11_10" x1="340" y1="497.982" x2="1336.79" y2="497.982" gradientUnits="userSpaceOnUse">
<stop offset="0.1" stop-color="#131D24"/>
<stop offset="0.259" stop-color="#18283E"/>
<stop offset="0.51" stop-color="#5D8F6C"/>
<stop offset="1" stop-color="#111924"/>
</linearGradient>
<linearGradient id="paint52_linear_11_10" x1="340" y1="377.772" x2="1336.79" y2="377.772" gradientUnits="userSpaceOnUse">
<stop offset="0.1" stop-color="#131D24"/>
<stop offset="0.259" stop-color="#18283E"/>
<stop offset="0.51" stop-color="#5D8F6C"/>
<stop offset="1" stop-color="#111924"/>
</linearGradient>
<linearGradient id="paint53_linear_11_10" x1="340" y1="480.814" x2="1336.79" y2="480.814" gradientUnits="userSpaceOnUse">
<stop offset="0.1" stop-color="#131D24"/>
<stop offset="0.259" stop-color="#18283E"/>
<stop offset="0.51" stop-color="#5D8F6C"/>
<stop offset="1" stop-color="#111924"/>
</linearGradient>
<linearGradient id="paint54_linear_11_10" x1="340" y1="412.109" x2="1336.79" y2="412.109" gradientUnits="userSpaceOnUse">
<stop offset="0.1" stop-color="#131D24"/>
<stop offset="0.259" stop-color="#18283E"/>
<stop offset="0.51" stop-color="#5D8F6C"/>
<stop offset="1" stop-color="#111924"/>
</linearGradient>
<linearGradient id="paint55_linear_11_10" x1="340" y1="515.151" x2="1336.79" y2="515.151" gradientUnits="userSpaceOnUse">
<stop offset="0.1" stop-color="#131D24"/>
<stop offset="0.259" stop-color="#18283E"/>
<stop offset="0.51" stop-color="#5D8F6C"/>
<stop offset="1" stop-color="#111924"/>
</linearGradient>
</defs>
</svg>
